<svg version="1.1" xmlns="http://www.w3.org/2000/svg" xmlns:xlink="http://www.w3.org/1999/xlink" x="0px" y="0px"
     viewBox="0 0 99 30" xml:space="preserve"><title>Olay</title>
    <g><path d="M87.9,20.3v6.4c0,2-1.4,3-3.3,3h-0.7l0-9.4L72.4,0.5h1.9c2,0,3.2,0.5,4.2,2.4l8.3,14.6L95,2.6c0.9-1.7,1.8-2,3-2h0.9 L87.9,20.3z"></path>
        <path d="M77.6,29.7c-2.9,0-3.6-0.9-4.5-2.9L64.4,7.4l-5.4,12.5h6.7c2.3,0,3.1,1.1,3.4,2.3l-11.1,0c-2,4.6-2.3,5.3-2.3,5.3 c-0.8,1.9-1.8,2.2-2.9,2.2h-0.9L65,0.1h0.5L79,29.7H77.6z"></path>
        <path d="M51,27.3c-0.6,1.8-1.9,2.3-4,2.3H33.9v-29h0.3h0.6c1.5,0,3.2,0.7,3.2,2.9l0,23.8H51z"></path>
        <path d="M15.6,2.1C9,2.1,4.4,7.9,4.4,15c0,7.1,4.6,12.9,11.2,12.9c6.6,0,11.2-5.8,11.2-12.9C26.8,7.9,22.2,2.1,15.6,2.1 M15.6,29.9 C6.5,29.9,0.2,23.2,0.2,15c0-8.2,6.3-14.9,15.4-14.9C24.7,0.1,31,6.8,31,15C31,23.2,24.7,29.9,15.6,29.9"></path></g></svg>